<?xml version="1.0" standalone="no"?><!DOCTYPE svg PUBLIC "-//W3C//DTD SVG 1.1//EN" "http://www.w3.org/Graphics/SVG/1.1/DTD/svg11.dtd"><svg t="1594438073174" class="icon" viewBox="0 0 1024 1024" version="1.1" xmlns="http://www.w3.org/2000/svg" p-id="1219" width="128" height="128" xmlns:xlink="http://www.w3.org/1999/xlink"><defs><style type="text/css"></style></defs><path d="M512 512m-512 0a512 512 0 1 0 1024 0 512 512 0 1 0-1024 0Z" fill="#707070" p-id="1220"></path><path d="M422.921481 504.632889L537.6 584.059259s-84.783407 30.596741-132.740741 12.325926c-39.822222-15.17037 18.062222-91.752296 18.062222-91.752296zM161.422222 252.207407C128 408.651852 231.23437 495.454815 256.948148 512s75.377778-123.183407 75.377778-123.183407S165.451852 233.367704 161.422222 252.207407z" fill="#ffffff" p-id="1221"></path><path d="M877.037037 334.696296c-22.878815 5.262222-296.77037-35.081481-345.125926-19.911111-22.774519 7.149037-16.118519 7.585185-11.377778 13.274074 25.6 24.651852 24.651852 80.592593-21.835852 86.897778l0.180149 0.293926C663.703704 437.096296 808.969481 479.781926 973.748148 541.392593c-61.714963 0-385.109333-85.390222-402.081185-37.906963-18.194963 50.906074 310.755556 239.29363 368.535704 251.448889l0.379259-0.265482C744.296296 729.125926 568.888889 655.17037 425.291852 521.310815l-0.208593 0.312889C458.903704 572.681481 441.837037 621.985185 357.252741 605.307259 281.448296 590.364444 494.933333 832.474074 585.955556 921.6c-158.340741-31.288889-422.371556-247.134815-391.585186-378.311111 14.65837-62.454519 151.789037-89.192296 104.296297-157.392593-51.617185 3.195259-131.707259-64.417185-136.997926-136.410074l0.161185 0.303408c62.435556-41.832296 175.720296 16.175407 197.006222 72.125629l0.350815-0.227555c38.760296-10.372741 17.929481-59.098074 37.404444-86.831408C424.647111 194.891852 463.644444 179.2 531.911111 192.474074c115.446519 22.442667 267.946667 110.78163 345.125926 142.222222z" fill="#000000" p-id="1222"></path></svg>